<?xml version="1.0" standalone="no"?>
<!DOCTYPE svg PUBLIC "-//W3C//DTD SVG 20010904//EN"
 "http://www.w3.org/TR/2001/REC-SVG-20010904/DTD/svg10.dtd">
<svg version="1.0" xmlns="http://www.w3.org/2000/svg"
 width="1250.000000pt" height="1250.000000pt" viewBox="0 0 1250.000000 1250.000000"
 preserveAspectRatio="xMidYMid meet">

<g transform="translate(0.000000,1250.000000) scale(0.100000,-0.100000)"
fill="#000000" stroke="none">
<path d="M5795 12485 c-509 -42 -925 -121 -1372 -259 -370 -114 -623 -215
-952 -380 -634 -317 -1128 -674 -1632 -1176 -296 -295 -499 -535 -732 -869
-230 -327 -493 -811 -632 -1161 -20 -52 -48 -120 -60 -150 -123 -294 -262
-802 -329 -1205 -67 -400 -71 -464 -71 -1040 0 -564 1 -575 61 -975 47 -311
171 -794 299 -1160 80 -230 294 -690 436 -940 296 -519 636 -959 1071 -1386
259 -254 442 -408 717 -603 351 -249 528 -357 841 -512 679 -337 1294 -524
2060 -625 188 -24 241 -27 645 -31 661 -8 969 23 1514 148 835 193 1660 576
2336 1084 458 345 914 799 1243 1239 136 182 320 457 411 616 89 154 281 535
348 690 210 483 368 1052 442 1590 11 80 26 190 33 245 9 72 13 249 13 625 0
485 -2 539 -23 707 -75 600 -229 1195 -437 1681 -270 636 -599 1173 -1020
1667 -142 167 -515 543 -670 676 -477 409 -1011 744 -1611 1009 -419 186 -967
347 -1439 424 -221 36 -477 65 -620 71 -290 12 -727 12 -870 0z"/>
</g>
</svg>
